<?xml version="1.0" standalone="no"?>
<!DOCTYPE svg PUBLIC "-//W3C//DTD SVG 20010904//EN"
 "http://www.w3.org/TR/2001/REC-SVG-20010904/DTD/svg10.dtd">
<svg version="1.0" xmlns="http://www.w3.org/2000/svg"
 width="1104.000000pt" height="283.000000pt" viewBox="0 0 1104.000000 283.000000"
 preserveAspectRatio="xMidYMid meet">
<metadata>
Created by potrace 1.16, written by Peter Selinger 2001-2019
</metadata>
<g transform="translate(0.000000,283.000000) scale(0.100000,-0.100000)"
fill="#000000" stroke="none">
<path d="M7710 2649 c-174 -11 -363 -43 -522 -88 -21 -6 -53 -15 -70 -20 -192
-54 -462 -188 -618 -305 -173 -130 -255 -225 -309 -359 -22 -54 -7 -130 34
-174 35 -39 185 -83 185 -55 0 4 -12 15 -28 24 -50 30 -65 55 -64 104 2 175
407 492 862 674 130 52 146 58 280 93 217 56 409 71 580 42 175 -29 270 -66
335 -130 107 -107 79 -233 -89 -400 -89 -88 -252 -207 -396 -288 -293 -166
-810 -383 -810 -341 0 5 195 260 210 274 3 3 22 26 43 52 21 26 43 53 50 60 7
8 41 47 76 88 99 115 320 332 375 368 34 22 61 32 89 32 l39 0 -19 32 c-27 46
-90 87 -134 88 -27 0 -54 -12 -100 -42 -68 -46 -262 -234 -369 -358 -36 -41
-67 -77 -70 -80 -3 -3 -21 -25 -40 -50 -19 -25 -37 -47 -40 -50 -3 -3 -21 -25
-40 -50 -19 -25 -37 -47 -40 -50 -3 -3 -27 -34 -53 -70 -27 -36 -54 -72 -61
-81 -8 -9 -46 -64 -85 -121 -39 -58 -76 -110 -83 -116 -23 -18 -121 -34 -188
-30 -63 3 -65 4 -62 28 1 14 11 36 21 50 23 31 152 139 167 140 7 0 14 7 17
14 7 17 -9 13 -59 -15 -93 -51 -106 -61 -171 -126 -43 -42 -53 -59 -53 -85 0
-18 6 -41 14 -50 21 -28 103 -58 157 -58 34 0 51 -5 55 -14 3 -8 -12 -45 -34
-83 -140 -243 -185 -412 -126 -482 14 -17 34 -31 43 -31 16 0 17 7 13 50 -4
44 1 61 46 153 49 100 233 390 263 413 8 6 28 14 44 18 17 4 48 11 70 16 115
26 124 28 300 86 92 30 224 78 269 98 20 9 53 23 74 32 20 10 73 34 117 55 69
34 106 53 230 123 34 19 140 88 145 95 3 3 23 19 45 36 61 44 188 174 224 227
62 93 75 134 75 243 1 92 -1 103 -26 142 -89 137 -243 213 -488 243 -134 16
-163 17 -300 9z"/>
<path d="M1685 2625 c-143 -23 -222 -49 -379 -126 -225 -110 -384 -254 -456
-413 -69 -152 -20 -269 142 -344 26 -12 54 -22 62 -22 8 0 17 -4 20 -8 6 -10
-20 -23 -79 -41 -124 -38 -261 -100 -395 -179 -52 -31 -99 -60 -105 -64 -180
-136 -278 -239 -337 -353 -38 -74 -41 -86 -42 -165 0 -76 2 -89 26 -126 54
-84 145 -124 282 -124 49 0 107 5 130 11 22 6 59 15 81 21 39 10 105 33 175
59 129 50 392 196 580 322 96 65 338 242 350 257 3 3 25 21 50 40 25 19 56 45
70 57 28 26 50 30 50 8 0 -13 -48 -65 -61 -65 -3 0 -15 -8 -27 -17 -11 -10
-55 -45 -97 -78 -140 -110 -180 -194 -112 -235 17 -11 44 -20 60 -20 23 0 27
4 27 27 0 28 26 67 87 129 45 46 152 134 163 134 4 0 18 -21 30 -47 29 -62 71
-124 132 -195 47 -55 58 -84 39 -104 -23 -24 -183 -334 -205 -396 -8 -24 -26
-74 -41 -113 -31 -84 -43 -208 -23 -245 15 -28 73 -70 97 -70 14 0 17 13 17
73 2 121 90 343 225 566 22 34 39 66 39 70 0 3 9 17 20 31 19 25 19 25 49 7
66 -39 165 -67 233 -67 39 0 68 4 68 10 0 6 -19 10 -43 10 -23 0 -65 8 -93 19
-57 20 -142 75 -150 96 -3 7 30 67 74 132 114 170 301 345 533 501 119 80 195
119 206 108 23 -23 -167 -296 -300 -430 -90 -91 -139 -127 -205 -150 -41 -15
-46 -14 -82 4 -38 19 -38 19 -33 -1 14 -53 139 -93 215 -69 109 34 210 102
323 216 134 136 245 313 245 391 0 72 -69 138 -131 127 -78 -15 -235 -111
-402 -247 -54 -44 -100 -77 -104 -74 -5 6 25 48 87 122 41 49 93 95 107 95 17
0 16 16 -3 49 -18 31 -73 71 -96 71 -16 0 -144 -129 -193 -195 -16 -22 -32
-42 -35 -45 -3 -3 -17 -21 -30 -40 -13 -19 -27 -37 -30 -40 -4 -3 -26 -34 -50
-70 -24 -36 -46 -67 -50 -70 -9 -7 -148 -218 -152 -232 -13 -38 -85 76 -134
210 -37 102 -44 88 106 202 47 35 87 66 90 70 7 8 195 141 264 186 71 46 59
56 -21 17 -67 -33 -213 -112 -228 -123 -5 -4 -26 -17 -45 -28 -19 -10 -72 -42
-118 -71 -46 -28 -88 -51 -93 -51 -27 0 -15 156 18 222 7 15 13 29 13 33 0 21
-102 -17 -143 -53 -31 -28 -47 -81 -47 -157 l0 -74 -119 -85 c-371 -266 -821
-510 -1061 -576 -25 -7 -58 -17 -75 -23 -48 -18 -244 -15 -280 5 -55 30 -70
54 -69 117 1 91 45 162 189 307 217 219 422 348 686 433 19 6 49 11 65 11 70
0 154 46 154 85 0 7 -36 16 -97 24 -180 22 -277 75 -301 163 -22 82 71 223
233 353 28 22 52 43 55 46 15 17 139 94 221 136 136 71 219 95 333 94 76 0
103 -4 135 -21 41 -20 71 -62 71 -98 0 -69 -93 -179 -227 -268 -92 -61 -200
-114 -233 -114 -21 0 -28 24 -10 35 12 8 13 25 1 25 -5 0 -30 -20 -55 -45 -54
-52 -59 -83 -20 -122 24 -24 31 -25 87 -20 120 11 259 89 370 206 89 94 127
175 127 267 0 121 -50 173 -189 201 -79 15 -102 15 -206 -2z"/>
<path d="M4012 2434 c-73 -37 -239 -244 -462 -579 -161 -240 -236 -365 -322
-534 -83 -164 -86 -191 -30 -251 43 -44 73 -50 123 -25 44 23 108 76 227 190
89 84 97 89 87 44 -3 -19 -9 -59 -12 -89 -4 -46 -1 -61 19 -90 55 -81 128 -98
242 -59 217 74 414 236 499 411 l42 87 83 3 c46 2 85 1 87 -1 2 -2 -13 -29
-34 -60 -92 -136 -176 -292 -187 -350 -8 -36 19 -94 53 -116 31 -21 53 -13 53
18 0 26 77 151 132 215 81 94 241 242 316 291 45 30 84 52 86 50 3 -2 -13 -40
-35 -84 -21 -44 -39 -90 -39 -102 0 -12 16 -39 36 -59 35 -34 40 -36 82 -30
25 3 70 19 100 36 31 16 58 28 61 25 3 -3 -3 -18 -13 -33 -35 -54 -66 -134
-66 -170 0 -57 59 -142 99 -142 42 0 194 104 368 252 51 43 96 78 102 78 5 0
-4 -24 -19 -52 -16 -29 -38 -82 -49 -116 -18 -58 -19 -67 -6 -92 19 -36 62
-70 89 -70 37 1 99 35 186 105 93 75 390 368 390 385 0 17 -19 2 -121 -92
-183 -169 -355 -298 -378 -283 -7 4 -7 15 -1 31 13 32 86 158 103 176 6 7 25
31 41 52 16 22 44 55 63 73 18 19 33 42 33 52 0 23 -58 91 -78 91 -17 0 -83
-52 -169 -133 -84 -79 -340 -266 -447 -326 -39 -22 -53 -14 -35 21 16 31 106
164 133 197 27 33 163 170 196 197 55 44 120 85 181 112 104 48 118 52 163 52
50 0 96 -37 96 -77 0 -14 4 -21 10 -18 17 11 11 61 -12 90 -27 35 -98 65 -154
65 -100 0 -259 -58 -388 -143 -50 -33 -93 -62 -96 -66 -3 -3 -21 -18 -42 -33
-20 -15 -42 -34 -50 -41 -24 -25 -115 -85 -166 -111 -45 -23 -102 -35 -102
-21 0 27 122 185 204 265 25 24 46 50 46 57 0 21 -28 60 -57 78 -21 14 -29 15
-56 4 -53 -22 -192 -112 -217 -140 -3 -3 -14 -12 -26 -20 -53 -36 -197 -161
-257 -223 -15 -16 -30 -26 -34 -23 -5 6 69 117 99 149 7 7 31 35 52 62 22 27
55 58 73 68 43 26 42 48 -7 92 -57 52 -81 48 -143 -21 -117 -128 -120 -131
-170 -138 -78 -12 -116 1 -168 56 -56 59 -82 62 -127 16 -34 -35 -40 -68 -21
-111 10 -22 5 -32 -52 -108 -138 -182 -277 -318 -364 -359 -49 -23 -69 -24
-89 -4 -61 61 164 412 359 561 99 75 191 114 272 114 61 0 68 11 20 28 -61 22
-154 11 -282 -33 -111 -38 -241 -122 -327 -211 -31 -33 -78 -82 -105 -109 -26
-28 -82 -79 -123 -115 -41 -36 -77 -67 -80 -70 -16 -17 -90 -71 -123 -89 -68
-38 -72 -27 -24 69 81 158 208 371 321 535 88 128 132 192 143 205 6 8 45 60
86 115 124 165 202 251 246 271 50 22 51 36 8 63 -47 29 -105 35 -145 15z"/>
<path d="M10286 2168 c-3 -7 -7 -24 -10 -38 -15 -72 -202 -197 -319 -214 -53
-8 -60 -29 -11 -34 36 -5 164 15 224 35 132 43 250 127 250 180 0 22 -31 49
-83 71 -35 15 -47 15 -51 0z"/>
<path d="M8535 1775 c-89 -29 -246 -112 -275 -145 -3 -3 -31 -28 -63 -55 -137
-115 -257 -306 -257 -410 0 -49 31 -95 83 -122 41 -21 139 -11 212 21 125 56
319 188 445 305 30 27 61 50 67 51 7 0 -1 -22 -19 -52 -51 -85 -107 -201 -114
-235 -7 -38 18 -95 53 -118 31 -21 53 -13 53 18 0 26 77 151 132 215 81 94
241 242 316 291 45 30 84 52 86 50 3 -2 -13 -40 -35 -84 -21 -44 -39 -90 -39
-102 0 -12 16 -39 36 -59 34 -34 40 -36 81 -30 47 6 104 32 171 78 23 16 42
26 42 23 0 -3 -18 -43 -39 -88 -82 -170 -88 -205 -46 -255 70 -83 141 -43 435
245 75 73 139 133 142 133 4 0 -22 -55 -56 -123 -70 -137 -83 -185 -60 -232
15 -33 60 -65 91 -65 23 0 107 44 158 84 139 107 437 407 421 424 -4 3 -10 2
-14 -3 -4 -6 -54 -53 -112 -105 -58 -52 -107 -98 -110 -101 -13 -16 -205 -161
-230 -174 -59 -31 -62 -21 -19 72 71 154 298 452 347 453 50 1 -51 120 -103
120 -11 0 -100 -82 -214 -196 -227 -228 -306 -300 -415 -383 -122 -91 -140
-88 -89 18 71 147 291 431 336 431 9 0 17 7 17 16 0 24 -84 104 -109 104 -27
0 -99 -65 -160 -145 -103 -135 -119 -152 -168 -185 -68 -46 -139 -80 -168 -80
-14 0 -25 2 -25 5 0 27 122 185 204 265 25 24 46 50 46 57 0 21 -28 60 -57 78
-21 14 -29 15 -56 4 -53 -22 -192 -112 -217 -140 -3 -3 -14 -12 -26 -20 -53
-36 -197 -161 -257 -223 -15 -16 -30 -26 -34 -23 -5 6 69 117 99 149 7 7 31
35 52 62 22 27 55 58 73 68 18 11 33 28 33 38 0 26 -75 90 -105 90 -29 0 -83
-51 -155 -146 -53 -70 -128 -147 -190 -194 -25 -19 -47 -37 -50 -40 -8 -8
-166 -121 -237 -169 -81 -54 -208 -117 -254 -125 -46 -8 -89 7 -89 33 0 53 67
151 103 151 29 0 137 40 212 77 164 83 345 251 345 321 0 28 -28 60 -70 82
-49 25 -67 24 -155 -5z m145 -59 c0 -31 -143 -179 -255 -263 -71 -53 -193
-119 -203 -109 -21 21 148 198 277 290 54 38 158 96 173 96 5 0 8 -6 8 -14z"/>
</g>
</svg>
